#!OML:ASF F:\VICON\USERDATA\Patient Classification 1\PLAYGROUND\JustinFriday\JustinFriday.ASF
:FULLY-SPECIFIED
:DEGREES
1223
root -28.0824 17.342 -10.0118 345.519 71.9573 -20.436
lowerback 20.1002 7.27643 0.776271
upperback 5.74099 10.2423 4.33371
thorax -5.56221 5.11692 1.65142
lowerneck -0.801779 -19.3646 -7.60238
upperneck -0.809541 -26.4657 23.5975
head 4.18522 -12.9653 6.40278
rclavicle -6.95746e-014 -1.43125e-014
rhumerus 35.3904 19.0203 -68.9104
rradius 35.555
rwrist 9.22176
rhand -25.2498 -20.0214
rfingers 7.12502
rthumb 1.27032 -49.9974
lclavicle -6.95746e-014 -1.43125e-014
lhumerus -19.1538 -18.49 95.9971
lradius 41.2063
lwrist -13.1581
lhand -14.6678 -10.6293
lfingers 7.12502
lthumb 11.4852 19.0361
rfemur -19.2876 6.86733 24.0899
rtibia 33.2851
rfoot -6.59945 19.5492
rtoes 51.5379
lfemur -19.8211 -5.90779 -10.5444
ltibia 37.3505
lfoot -21.2764 -12.5698
ltoes 5.90014
1224
root -28.0598 17.3629 -10.0324 348.178 71.0332 -17.2367
lowerback 20.5524 7.63497 0.65689
upperback 5.6884 10.6109 3.48093
thorax -5.71786 5.28007 0.671225
lowerneck -0.607157 -19.5924 -6.59513
upperneck -1.32606 -26.6783 23.9356
head 3.94831 -13.1092 6.40154
rclavicle 1.27222e-013 -1.59028e-014
rhumerus 33.9442 18.5258 -70.5997
rradius 36.6196
rwrist 9.15562
rhand -25.5608 -20.2476
rfingers 7.12502
rthumb 0.969959 -50.2252
lclavicle 1.27222e-013 -1.59028e-014
lhumerus -20.0414 -20.3695 94.7159
lradius 40.7944
lwrist -10.7176
lhand -13.0334 -10.453
lfingers 7.12502
lthumb 13.061 19.118
rfemur -18.7811 7.30498 23.1402
rtibia 33.1871
rfoot -5.87856 20.2346
rtoes 51.9692
lfemur -18.8531 -7.12516 -11.4222
ltibia 37.3071
lfoot -20.5899 -12.631
ltoes 14.0563
1225
root -28.0616 17.3649 -10.0586 348.024 70.4763 -17.6161
lowerback 19.5713 7.32846 -0.599814
upperback 6.09531 10.0058 4.11905
thorax -5.08279 5.01573 2.31623
lowerneck -1.12314 -18.9651 -6.07831
upperneck -1.70413 -25.7152 23.3932
head 3.62704 -12.6464 6.30481
rclavicle 2.18663e-014 7.95139e-016
rhumerus 34.406 21.4865 -68.496
rradius 38.9611
rwrist 6.64349
rhand -24.8672 -20.2222
rfingers 7.12502
rthumb 1.63981 -50.1957
lclavicle 2.18663e-014 7.95139e-016
lhumerus -20.0712 -17.5014 94.6225
lradius 39.5818
lwrist -9.73357
lhand -13.1596 -9.74736
lfingers 7.12502
lthumb 12.9393 19.8315
rfemur -19.1122 7.5428 23.2983
rtibia 33.3358
rfoot -5.62736 20.6489
rtoes 51.953
lfemur -18.8287 -7.83473 -11.0709
ltibia 37.2852
lfoot -20.3959 -12.757
ltoes 18.541
1226
root -28.1134 17.3473 -10.1793 348.373 69.9173 -19.2947
lowerback 19.0978 7.08209 1.49912
upperback 5.18587 10.0054 3.39394
thorax -5.33438 4.97712 0.428342
lowerneck -1.07082 -19.3606 -5.234
upperneck -2.37431 -26.1333 23.6655
head 3.40866 -12.9019 6.26694
rclavicle 6.63941e-014 2.14687e-014
rhumerus 32.7325 21.0393 -69.7737
rradius 40.2086
rwrist 6.54535
rhand -25.0897 -19.5713
rfingers 7.12502
rthumb 1.42493 -49.5463
lclavicle 6.63941e-014 2.14687e-014
lhumerus -21.6575 -21.5336 94.4417
lradius 39.8073
lwrist -5.1815
lhand -14.3667 -7.13853
lfingers 7.12502
lthumb 11.7755 22.5104
rfemur -21.4185 7.64799 23.7448
rtibia 33.312
rfoot -5.07709 20.8172
rtoes 51.8026
lfemur -21.0414 -6.51342 -10.1223
ltibia 37.4721
lfoot -21.5958 -10.2847
ltoes 2.09646
1227
root -28.1103 17.3368 -10.1785 348.307 69.1596 -20.1193
lowerback 18.4534 7.15941 2.11136
upperback 4.8404 10.167 3.00931
thorax -5.19225 5.04433 -0.275529
lowerneck -0.600924 -19.9822 -4.92758
upperneck -3.00387 -26.8968 24.5687
head 3.35221 -13.3448 6.44722
rclavicle 5.80451e-014 6.04305e-014
rhumerus 31.7369 21.7041 -69.4052
rradius 41.6916
rwrist 4.41672
rhand -26.017 -19.8494
rfingers 7.12502
rthumb 0.529282 -49.8284
lclavicle 5.80451e-014 6.04305e-014
lhumerus -22.6068 -22.839 93.8131
lradius 39.1385
lwrist -4.39888
lhand -13.891 -5.68107
lfingers 7.12502
lthumb 12.2342 23.9411
rfemur -22.3469 7.77878 24.1543
rtibia 33.513
rfoot -4.66677 21.2464
rtoes 51.9018
lfemur -21.9967 -3.61001 -9.97138
ltibia 37.552
lfoot -21.9188 -11.3899
ltoes 3.8903
1228
root -28.08 17.3633 -10.1871 347.724 68.4168 -20.9648
lowerback 17.5357 6.91353 2.00744
upperback 4.93237 9.81015 3.22538
thorax -4.66938 4.88836 0.204474
lowerneck -0.299361 -20.0965 -5.66033
upperneck -3.07869 -27.1125 25.5017
head 3.56303 -13.4622 6.76753
rclavicle -9.74045e-014 3.73715e-014
rhumerus 30.6808 23.2813 -70.371
rradius 42.9982
rwrist 3.99418
rhand -26.793 -19.7028
rfingers 7.12502
rthumb -0.220155 -49.6824
lclavicle -9.74045e-014 3.73715e-014
lhumerus -22.6185 -19.5541 93.2796
lradius 36.944
lwrist -6.96716
lhand -13.681 -5.66907
lfingers 7.12502
lthumb 12.4366 23.9409
rfemur -22.5481 7.58607 24.6278
rtibia 33.6569
rfoot -4.34712 21.7801
rtoes 51.7456
lfemur -22.1006 -1.16693 -9.52302
ltibia 37.5101
lfoot -20.6715 -15.0399
ltoes 13.0649
1229
root -28.0476 17.3546 -10.1943 347.282 67.8466 -20.6479
lowerback 17.2636 6.11613 0.725869
upperback 5.53963 8.64145 4.57219
thorax -4.27568 4.34899 2.61327
lowerneck -0.0193953 -19.2355 -9.84616
upperneck -2.38385 -26.2802 26.2994
head 4.29488 -13.0046 7.54666
rclavicle -3.10104e-014 -5.32743e-014
rhumerus 30.0386 27.0386 -70.8742
rradius 44.1135
rwrist 4.80934
rhand -26.7469 -18.5505
rfingers 7.12502
rthumb -0.175675 -48.5302
lclavicle -3.10104e-014 -5.32743e-014
lhumerus -21.8756 -10.1786 93.6236
lradius 33.3607
lwrist -11.8233
lhand -13.8874 -6.79377
lfingers 7.12502
lthumb 12.2377 22.8282
rfemur -21.7468 6.47637 24.7559
rtibia 33.7964
rfoot -3.8964 22.4322
rtoes 50.7979
lfemur -20.757 -3.58876 -9.90962
ltibia 37.2596
lfoot -22.9199 -8.97779
ltoes 2.60604
